Coordinates
version=1
nRows=6
nColumns=63
inDegrees=yes

Units are S.I. units (second, meters, Newtons, ...)
If the header above contains a line with 'inDegrees', this indicates whether rotational values are in degrees (yes) or radians (no).

endheader
time	pelvis_tilt	pelvis_list	pelvis_rotation	pelvis_tx	pelvis_ty	pelvis_tz	hip_flexion_r	hip_adduction_r	hip_rotation_r	knee_angle_r	knee_angle_r_beta	ankle_angle_r	subtalar_angle_r	mtp_angle_r	hip_flexion_l	hip_adduction_l	hip_rotation_l	knee_angle_l	knee_angle_l_beta	ankle_angle_l	subtalar_angle_l	mtp_angle_l	L5_S1_Flex_Ext	L5_S1_Lat_Bending	L5_S1_axial_rotation	L4_L5_Flex_Ext	L4_L5_Lat_Bending	L4_L5_axial_rotation	L3_L4_Flex_Ext	L3_L4_Lat_Bending	L3_L4_axial_rotation	L2_L3_Flex_Ext	L2_L3_Lat_Bending	L2_L3_axial_rotation	L1_L2_Flex_Ext	L1_L2_Lat_Bending	L1_L2_axial_rotation	L1_T12_Flex_Ext	L1_T12_Lat_Bending	L1_T12_axial_rotation	Abs_r3	Abs_r2	Abs_r1	Abs_t1	Abs_t2	neck_flexion	neck_bending	neck_rotation	arm_flex_r	arm_add_r	arm_rot_r	elbow_flex_r	pro_sup_r	wrist_flex_r	wrist_dev_r	arm_flex_l	arm_add_l	arm_rot_l	elbow_flex_l	pro_sup_l	wrist_flex_l	wrist_dev_l
      1.61702128	     -1.36021072	      3.84283665	     97.25213611	      0.05037614	      0.87263065	      0.59423599	     -0.77449584	      0.94345547	     -7.43667934	      7.66513335	      0.13378181	     26.90130415	     -0.37500204	      0.00000000	     -4.68302383	     -0.05699387	     -4.84508664	      0.84672531	      0.01477814	     28.50139810	      8.13448251	      0.00000000	      0.00196593	      0.02685267	     -0.22325499	      0.00365092	      0.03571405	     -0.23720843	      0.00322982	      0.06528958	     -0.23720843	      0.00224686	      0.06528958	     -0.19534812	      0.00182556	      0.05475796	     -0.18139468	      0.00112333	      0.04159478	     -0.16744124	      0.01404243	      0.30376276	     -1.24167729	      0.00000000	      0.00000000	     21.66965847	      0.49305656	     -0.42736807	      3.34797909	    -18.86128282	     60.87948537	     27.87848795	     58.52863544	     -3.89908388	     -9.28110109	      1.44574866	    -18.76801149	     63.15667393	     23.56563469	     86.79838495	    -20.55690359	     -4.54776139
      1.63829787	     -1.31406576	      3.80968135	     96.97863116	      0.05045157	      0.87270510	      0.59420661	     -0.67513814	      0.96140440	     -7.22193669	      7.73979670	      0.13508494	     26.82725014	     -0.40872789	      0.00000000	     -4.66498464	     -0.07800336	     -5.71021984	      0.86535808	      0.01510335	     28.55424147	      8.99105348	      0.00000000	     -0.00161816	      0.04088729	     -0.17999776	     -0.00300509	      0.05438009	     -0.19124762	     -0.00265848	      0.09941335	     -0.19124762	     -0.00184940	      0.09941335	     -0.15749804	     -0.00150263	      0.08337736	     -0.14624818	     -0.00092462	      0.06333441	     -0.13499832	     -0.01155839	      0.46252519	     -1.00109353	      0.00000000	      0.00000000	     21.08995368	      0.07400703	     -0.13346661	      3.34895389	    -18.99454016	     60.31019473	     28.05063311	     58.91969862	     -3.53845036	     -8.70086366	      1.66571732	    -18.62184131	     63.99309399	     23.36983652	     86.86303405	    -20.66983436	     -4.38145993
      1.65957447	     -1.28389805	      3.82160954	     96.85992937	      0.05047609	      0.87272262	      0.59425075	     -0.64374844	      0.98109677	     -7.30142717	      7.73437712	      0.13499035	     26.98551441	     -0.10540595	      0.00000000	     -4.69394972	     -0.08999254	     -5.57281461	      0.84378086	      0.01472675	     28.45880252	      8.64954584	      0.00000000	     -0.00981386	      0.05341546	     -0.14888702	     -0.01822532	      0.07104256	     -0.15819246	     -0.01612319	      0.12987435	     -0.15819246	     -0.01121626	      0.12987435	     -0.13027614	     -0.00911315	      0.10892481	     -0.12097070	     -0.00560764	      0.08274055	     -0.11166527	     -0.07009941	      0.60424637	     -0.82806494	      0.00000000	      0.00000000	     20.47498813	     -0.16149797	      0.15692079	      3.34169449	    -19.08593316	     59.94801567	     28.17978872	     58.60386427	     -3.14670711	     -8.02762722	      1.97576700	    -18.56574288	     64.72074437	     23.31974309	     86.68137741	    -20.20861985	     -4.14615572
      1.68085106	     -1.16994181	      3.76180787	     96.59933939	      0.05033173	      0.87270628	      0.59450782	     -0.45053647	      1.02900827	     -7.30467327	      7.84399107	      0.13690347	     27.09659985	      0.37127847	      0.00000000	     -4.63868918	     -0.12896537	     -5.30657577	      0.82932292	      0.01447442	     28.40973493	      7.84261950	      0.00000000	     -0.00416557	      0.08025360	     -0.09241383	     -0.00773588	      0.10673728	     -0.09818969	     -0.00684362	      0.19512860	     -0.09818969	     -0.00476083	      0.19512860	     -0.08086210	     -0.00386815	      0.16365314	     -0.07508623	     -0.00238021	      0.12431282	     -0.06931037	     -0.02975426	      0.90784474	     -0.51397799	      0.00000000	      0.00000000	     19.85340462	     -0.29138188	      0.34242905	      3.28328773	    -19.24814351	     59.49662829	     28.30536616	     58.08396836	     -2.62349053	     -7.34118046	      2.43643011	    -18.28007656	     66.07787986	     23.00546120	     86.35763704	    -19.87497329	     -3.72841280
      1.70212766	     -1.23589244	      3.87376840	     96.64317238	      0.05021295	      0.87288503	      0.59455704	     -0.56740896	      0.92945845	     -7.89368793	      7.86577945	      0.13728375	     27.35272162	      1.20438249	      0.00000000	     -4.78421612	     -0.04949277	     -5.27849105	      0.82594454	      0.01441545	     28.49765238	      7.74796914	      0.00000000	     -0.02777814	      0.07855546	     -0.09403041	     -0.05158679	      0.10447876	     -0.09990731	     -0.04563671	      0.19099974	     -0.09990731	     -0.03174764	      0.19099974	     -0.08227661	     -0.02579478	      0.16019029	     -0.07639971	     -0.01587243	      0.12168241	     -0.07052281	     -0.19841649	      0.88863506	     -0.52296893	      0.00000000	      0.00000000	     19.46231054	     -0.03237342	      0.52274956	      3.19324917	    -19.25108341	     59.19269853	     28.53197041	     56.92290309	     -2.42794060	     -6.82905900	      2.79191602	    -18.33841664	     66.99289888	     23.05547174	     85.44161076	    -19.15416664	     -3.56588737
      1.72340426	     -1.15651047	      3.78457848	     96.62356353	      0.05019582	      0.87266221	      0.59441261	     -0.52666301	      1.12377382	     -6.10505257	      7.73331275	      0.13497177	     26.74924655	     -1.34552691	      0.00000000	     -4.72020003	     -0.09660360	     -4.72052255	      0.87029401	      0.01518950	     28.56541675	      6.90233236	      0.00000000	     -0.00751737	      0.09297398	     -0.11017628	     -0.01396050	      0.12365539	     -0.11706230	     -0.01235028	      0.22605693	     -0.11706230	     -0.00859160	      0.22605693	     -0.09640424	     -0.00698063	      0.18959253	     -0.08951823	     -0.00429542	      0.14401669	     -0.08263221	     -0.05369580	      1.05174022	     -0.61276741	      0.00000000	      0.00000000	     18.88789767	      0.25422484	      0.92117062	      2.85225821	    -19.24113624	     57.89845544	     28.79957594	     57.29431337	     -2.06241328	     -6.14170229	      2.41852127	    -18.32527419	     64.83843932	     23.59430394	     86.92411802	    -18.35548757	     -2.29663870
